<?xml version="1.0" encoding="utf-8"?>
<!-- Generator: Adobe Illustrator 27.0.0, SVG Export Plug-In . SVG Version: 6.00 Build 0)  -->
<svg version="1.1" id="Layer_1" xmlns="http://www.w3.org/2000/svg" xmlns:xlink="http://www.w3.org/1999/xlink" x="0px" y="0px"
	 viewBox="0 0 662.8 670.1" style="enable-background:new 0 0 662.8 670.1;" xml:space="preserve">
<style type="text/css">
	.st0{fill:url(#path1948_00000086686770208649705360000009388355013015988158_);}
	.st1{fill:url(#path1950_00000057827331785991262510000011521935818144395183_);}
	.st2{fill:url(#SVGID_1_);}
	.st3{fill:url(#SVGID_00000111900475283658412870000000647416622057889182_);}
	.st4{fill:url(#SVGID_00000166639501405035024960000001990533372984400793_);}
	.st5{fill:url(#SVGID_00000049918785021813979180000011531862241600917638_);}
	.st6{fill:url(#SVGID_00000088120510303063894620000002565016826289080488_);}
	.st7{fill:url(#SVGID_00000006675925492496031490000016318429051637230722_);}
	.st8{fill:url(#SVGID_00000178204405915012595600000017826220506556066193_);}
</style>
<g>
	<g>
		
			<linearGradient id="path1948_00000090277623490959646030000001209972954796717698_" gradientUnits="userSpaceOnUse" x1="543.3963" y1="-9.1899" x2="1193.4396" y2="550.0851" gradientTransform="matrix(0.5625 0 0 0.568 -321.8752 24.2771)">
			<stop  offset="0" style="stop-color:#5A9FD4"/>
			<stop  offset="1" style="stop-color:#306998"/>
		</linearGradient>
		<path id="path1948" style="fill:url(#path1948_00000090277623490959646030000001209972954796717698_);" d="M327.6,0
			c-27.3,0.1-53.4,2.5-76.4,6.5c-67.7,12-79.9,37-79.9,83.1v60.9h159.8v20.3H171.2h-60c-46.5,0-87.2,27.9-99.9,81.1
			c-14.7,60.9-15.3,98.9,0,162.5c11.4,47.3,38.5,81.1,85,81.1h55v-73c0-52.8,45.7-99.3,99.9-99.3h159.7c44.5,0,79.9-36.6,79.9-81.2
			V89.6c0-43.3-36.6-75.9-79.9-83.1C383.4,2,354.9-0.1,327.6,0z M241.1,49c16.5,0,30,13.7,30,30.6c0,16.8-13.5,30.4-30,30.4
			c-16.6,0-30-13.6-30-30.4C211.1,62.7,224.5,49,241.1,49z"/>
		
			<linearGradient id="path1950_00000115496873322918625110000002779366851721815686_" gradientUnits="userSpaceOnUse" x1="1444.8269" y1="888.5327" x2="1212.6968" y2="560.1086" gradientTransform="matrix(0.5625 0 0 0.568 -321.8752 24.2771)">
			<stop  offset="0" style="stop-color:#FFD43B"/>
			<stop  offset="1" style="stop-color:#FFE873"/>
		</linearGradient>
		<path id="path1950" style="fill:url(#path1950_00000115496873322918625110000002779366851721815686_);" d="M510.7,170.9v71
			c0,55-46.7,101.4-99.9,101.4H251.2c-43.7,0-79.9,37.4-79.9,81.2v152.2c0,43.3,37.7,68.8,79.9,81.2c50.6,14.9,99.1,17.6,159.7,0
			c40.2-11.7,79.9-35.1,79.9-81.2v-60.9H331.1v-20.3h159.7h79.9c46.5,0,63.8-32.4,79.9-81.1c16.7-50.1,16-98.2,0-162.5
			c-11.5-46.3-33.4-81.1-79.9-81.1L510.7,170.9z M420.9,556.4c16.6,0,30,13.6,30,30.4c0,16.9-13.4,30.6-30,30.6
			c-16.5,0-30-13.7-30-30.6C390.9,570,404.4,556.4,420.9,556.4z"/>
	</g>
</g>
<g>
	
		<linearGradient id="SVGID_1_" gradientUnits="userSpaceOnUse" x1="75.5388" y1="515.9957" x2="163.1211" y2="439.9153" gradientTransform="matrix(1 0 0 -1 0 804.0068)">
		<stop  offset="0" style="stop-color:#FFD43B"/>
		<stop  offset="1" style="stop-color:#FFE873"/>
	</linearGradient>
	<path class="st2" d="M49.1,344.8c1.7-5.5,3-11.2,5.1-16.7c6.6-16.7,16.4-31.7,27.2-46c12.9-16.9,27.2-32.3,44.4-44.9
		c6.4-4.9,13.5-8.9,20.9-12l3.3-1.1c-1.1,3.7-1.8,7.1-3,10.4c-5.5,15.8-13.7,30.2-22.6,44.2c-13.7,21.3-29,41.3-47.3,59
		c-9.2,8.9-19.7,15.9-32,20.1c-1,0.5-1.9,1.1-2.6,1.9c-3.7,4-7.3,8.1-10.7,12.8c2.3-0.2,4.7-0.4,7.1-0.8
		c11.7-2.2,22.5-6.9,33.6-11.2c7.1-2.8,14.4-5.5,21.8-8.1c1.8-0.6,3.6-0.8,5.5-0.8c4-0.1,5.4,1.8,4.2,5.8c-0.6,1.8-1.7,3.5-2.6,5.8
		c2.9-0.4,5.4-0.7,8.1-1c5.9-0.5,11.9-1,17.8-1.3c2.8-0.1,5.1,0.6,5.4,4c0.2,2,1.8,3.4,3.7,3.7c5.5,1,11.1,1.7,16.6,2.5
		c1.3,0.1,2.8,0,4.6,0c-6.4,1.7-17.8,0.8-23.4-1.3c-2.2-0.8-4-2.2-4.8-4.6c-0.2-0.7-1.7-1.6-2.5-1.6c-4.1,0.1-8.3,0.1-12.3,0.7
		c-5.2,0.8-10.1,2.3-15.3,3.3c-1.2,0.2-2.5-0.4-3.7-0.6c0.2-1.3,0.5-2.5,1-3.7c0.5-1.2,1.6-2.3,2-3.5s0.6-2.8,0.8-4
		c-1.3-0.1-2.8-0.6-4.2-0.4c-1.9,0.4-3.7,1-5.5,1.7c-12,4.3-24.1,8.9-36.2,13.1c-8.3,2.9-16.9,4.8-26,4.6c4.6-6,9-11.9,13.6-17.6
		c0.8-1,1.8-1.8,3-2.3c23-9.4,39.5-26.5,53.8-45.8c9.8-13.1,18.4-27.1,27.6-40.8l0.2-0.7l-8.7,4.2l-0.2-0.5
		c3.4-2.3,6.7-4.5,10.1-6.7c1-0.5,1.8-1.3,2.4-2.2c5.9-10.7,11.6-21.6,17.3-32.3c0.1-0.4,0.2-0.8,0.4-1.3c-1.7,1-3,1.8-4.3,2.6
		c-14.6,9-27.1,20.2-39,32.4c-15,15.5-28.4,32.3-39.6,50.8c-5.8,9.6-10.7,19.7-13.6,30.7L49.1,344.8z"/>
	
		<linearGradient id="SVGID_00000131363175967903609530000001414124539615708573_" gradientUnits="userSpaceOnUse" x1="87.977" y1="509.9964" x2="93.7777" y2="504.9576" gradientTransform="matrix(1 0 0 -1 0 804.0068)">
		<stop  offset="0" style="stop-color:#FFD43B"/>
		<stop  offset="1" style="stop-color:#FFE873"/>
	</linearGradient>
	<path style="fill:url(#SVGID_00000131363175967903609530000001414124539615708573_);" d="M54.8,344c20.1-34.7,44.9-65.7,73.2-93.9
		C101.5,279.8,76.3,310.4,54.8,344z"/>
</g>
<g>
	
		<linearGradient id="SVGID_00000148629775991205809400000001807352256451822212_" gradientUnits="userSpaceOnUse" x1="337.4181" y1="428.7013" x2="267.5968" y2="329.9163" gradientTransform="matrix(1 0 0 -1 0 804.0068)">
		<stop  offset="0" style="stop-color:#5A9FD4"/>
		<stop  offset="1" style="stop-color:#306998"/>
	</linearGradient>
	<path style="fill:url(#SVGID_00000148629775991205809400000001807352256451822212_);" d="M305.6,390.1c-0.9,1.3-2.5,4.2-5.2,9
		c-2.5,4.9-6.1,11.3-10.4,19.8l2.8,0.5c5.8-2.5,11.5-5.2,17.1-8.2c5.2-3,10.4-6.3,15.1-9.9c9.6-7.1,15.2-13.5,17.1-19
		c0.5-1.6,1.1-2.2,1.7-2.2s0.5,0.3,0.5,1.1c0,0.3,0,0.6-0.2,0.9c-1.1,6.6-6.3,13.7-15.2,21c-9,7.4-18.2,12.6-30,17.4
		c12.9,2.5,23.7,6.3,32.2,11.3c11.9,7.1,17.9,15.7,17.9,26.4c0,3-0.5,6-1.3,8.6c-0.3,1.3-0.9,2-1.7,2s-0.8-0.3-0.8-1.1
		c0-0.3,0-0.8,0.2-1.1c0.6-1.9,0.9-3.9,0.9-6c0-9-6-17.1-18.1-23.9c-10.2-5.8-22.9-10.4-38-13l-1.7,0.8l-1.7,0.5
		c-2.5,4.9-5,9-7.2,12.6c-2.2,3.6-4.4,6.9-6.4,9.6c4.7,3.1,10.2,4.9,15.9,4.9c4.1,0,6.9-0.9,8.3-3c0.2-0.3,0.5-0.3,0.8,0
		s0.5,0.6,0.3,0.9c-1.6,2.2-4.6,3.3-9,3.3c-6,0.2-11.9-1.7-17-5c-6.6,8.5-12.6,12.9-18.2,12.9c-1.7,0-3.6-0.2-5.2-0.8
		c-1.6-0.5-3-1.4-4.2-2.5c-2.5-2.4-3.9-5.8-3.9-9.3c0-0.3,0.2-0.8,0.2-1.1l0.2-1.1c0.2-1.1,0.8-1.7,1.7-1.7s0.8,0.3,0.8,1.1
		c0,0.5-0.2,1.1-0.3,1.6c-0.2,0.6-0.3,1.3-0.3,1.9c0,2.5,1.3,4.7,3.5,6.6s4.9,2.4,8.2,2.2c4.6-0.5,9.6-4.6,14.9-11.9
		c-1.6-1.4-3.1-2.8-4.6-4.4l-2,2.4c-0.8,0.9-1.7,1.9-3,3.1c-2.8,3-4.4,4.4-5,4.4c-0.6,0-0.9-0.3-0.9-0.8c0-0.5,0.2-0.2,0.3-0.3
		c1.9-1.4,3.6-3,5.2-4.6c1.6-1.7,3.1-3.5,4.6-5.2c-2.4-2.8-4.2-5.8-6-9.1h-5.7c-2.8,0-5.7-0.6-8.2-2c-2.2-1.3-3.1-2.7-3.1-4.2
		c0-3.1,3.9-5.7,11.8-7.1c-1.6-5.5-2.4-11-2.2-16.6c0.3-8.5,2.7-15.2,6.8-20.6c4.1-5.2,7.7-6.9,12.6-6.9c3.8,0,7.4,1.7,9.6,4.9
		c2.5,3.3,4.2,8.2,4.2,14.3c0,6.1-1.9,14.6-5.5,24.5c2.2,0.2,4.2,0.3,6.3,0.5l4.2-9.4c1.6-3.6,3.3-7.5,5.2-12.1
		c1.9-4.6,2.8-6.3,3-6.3c1.6-2.2,4.2-3.6,6.9-3.6c1.4,0,2.2,0.5,2.2,1.6C306.2,388.9,306.1,389.7,305.6,390.1z M253.9,421.4
		l-0.9,0.2c-1.4,0.2-2.8,0.6-3.9,1.6c-0.9,0.5-1.4,1.4-1.6,2.5c0,1.6,1.6,2.5,4.6,2.7c1.4,0.2,3,0.2,4.4,0
		C255.7,426.1,254.7,423.8,253.9,421.4L253.9,421.4z M276.4,417.5c3.5-9.4,5-17.6,5-24c0-6.4-1.1-10.1-3.5-13.4
		c-2.4-3.3-4.9-4.4-8.2-4.4s-7.7,2.2-10.8,6.4c-3.1,4.2-5.5,11.6-5.8,19.6c-0.2,5.5,0.5,10.8,1.7,16.2
		C262.1,417,269.3,416.8,276.4,417.5L276.4,417.5z M275.1,421.2c-3.9-0.3-7.4-0.5-10.5-0.5c-3.1,0-5.7,0.2-8.5,0.3
		c0.3,1.3,0.8,2.5,1.1,3.6c0.5,1.1,0.9,2.4,1.4,3.5c2-0.2,4.1-0.5,6.1-0.8l8.5-1.6c0.3-0.8,0.6-1.6,0.9-2.2L275.1,421.2z
		 M265.1,439.6c1.1-1.6,2.2-3.1,3.1-4.7c1.1-1.7,2-3.5,3-5.2l-5.8,1.1c-1.9,0.3-3.6,0.5-5.3,0.8
		C261.5,434.4,263.2,437.1,265.1,439.6z M270.3,445.1c1.9-2.5,3.5-5.2,5-7.9c1.6-3,3.5-6.3,5.2-10.1l-3.6,0.9l-3.5,0.9
		c-1.1,2-2.4,4.1-3.6,6c-1.3,1.9-2.5,3.8-3.8,5.5C267.3,442.3,268.7,443.7,270.3,445.1z M275.3,425.3c3.9-0.9,5.8-1.7,5.8-2.7
		c0-0.8-1.3-1.1-4.1-1.3c-0.3,0.6-0.6,1.3-0.9,1.9C275.9,423.9,275.6,424.5,275.3,425.3z"/>
	
		<linearGradient id="SVGID_00000107584687835312893550000002118313887803537537_" gradientUnits="userSpaceOnUse" x1="386.7257" y1="368.1055" x2="365.8618" y2="338.5865" gradientTransform="matrix(1 0 0 -1 0 804.0068)">
		<stop  offset="0" style="stop-color:#5A9FD4"/>
		<stop  offset="1" style="stop-color:#306998"/>
	</linearGradient>
	<path style="fill:url(#SVGID_00000107584687835312893550000002118313887803537537_);" d="M384.9,436c-3.8,7.5-5.7,13.2-5.7,17.4
		c0,4.2,1.3,4.9,3.9,4.9c4.1,0,9.3-3.5,15.5-10.1c0.6-0.6,1.1-0.9,1.4-0.9c0.3,0,0.5,0.3,0.5,0.8s-0.3,0.9-0.8,1.3
		c-7.5,8-14,11.8-19.3,11.3c-1.6-0.2-3-0.9-3.8-2.2c-1.4-1.6-2.2-3.8-2-6c0-1.3,0.2-2.5,0.5-3.8c-4.7,5.7-8.5,9.1-11,10.4
		c-1.3,0.6-2.7,0.9-4.1,1.1c-3,0-4.4-1.7-4.4-5.2s1.7-8.6,5.5-15.2c0.6-1.1,1.9-1.7,4.1-1.7c2.2,0,1.7,0.5,1.3,1.4
		c-0.5,1.1-0.9,2-1.6,3c-0.5,0.9-1.1,1.9-1.6,3c-1.9,3.8-2.8,6.6-2.8,8.6c0,2,0.6,3.1,1.7,3.6c2.8,0,6-2.7,9.7-7.7
		c3.1-4.4,5.8-9.1,7.9-14c0.6-0.9,1.9-1.4,3.8-1.4c1.7,0,1.4,0.3,1.4,0.8C385.2,435.5,385.1,435.8,384.9,436z"/>
	
		<linearGradient id="SVGID_00000141452489452501700350000001001213253599553215_" gradientUnits="userSpaceOnUse" x1="448.6087" y1="400.2922" x2="404.4062" y2="337.7532" gradientTransform="matrix(1 0 0 -1 0 804.0068)">
		<stop  offset="0" style="stop-color:#5A9FD4"/>
		<stop  offset="1" style="stop-color:#306998"/>
	</linearGradient>
	<path style="fill:url(#SVGID_00000141452489452501700350000001001213253599553215_);" d="M411.6,434.3c0,0.8,0.2,1.4,0.3,2.2
		l0.5,2.4c1.1-1.6,2.2-3,3.5-4.4c1.1-1.4,2.4-2.8,3.6-4.1c3.1-3.1,6.1-4.9,8.8-4.9c1.3,0,2.7,0.5,3.6,1.3c0.9,0.8,1.4,2,1.3,3.3
		c0,0.8-0.2,1.7-0.5,2.4c-0.5,0.9-0.9,1.3-1.6,1.3c-0.5,0-1.1-0.5-1.1-1.7c-0.3-1.6-1.7-2.8-3.3-2.8c-1.9,0-5.7,1.9-9.1,5.8
		l-2.4,2.8c-0.8,0.8-1.6,1.7-2.2,2.8c1.3,4.1,3.3,7.9,6.1,11.2c3,3.5,6.3,5.2,9.9,5.2c2,0,3.9-0.5,5.7-1.4c3.3-1.7,6.3-4.2,8.8-7.1
		c0.5-0.5,0.9-0.8,1.6-0.9c0.3,0.2,0.5,0.5,0.5,0.8c0,0.5-0.2,0.9-0.5,1.3c-3,3-6.3,5.3-9.9,7.4c-4.4,2.5-8,3.8-11,3.8
		c-3,0-5.7-1.6-8.5-4.6c-2.7-2.8-4.9-6.1-6.3-9.7c-1.3,2-2.4,4.2-3.3,6.4c-1.1,2.5-2.4,5.5-3.6,9c-0.8,0.5-1.6,0.8-2.5,0.8
		c-1.9,0-3-1.4-3-4.2c0-0.8,0.2-1.4,0.3-2.2c1.1-3.1,2.4-6.9,3.9-11.2c1.7-4.2,3.6-9.1,5.8-14.6c5.8-14,10.8-23.7,14.6-29.4
		c3.9-5.7,6.8-7.2,10.5-7.2c3.8,0,4.2,1.6,4.2,4.9c0,1.7-0.3,3.3-0.9,4.9C433,412.3,424.8,422.5,411.6,434.3z M408.5,444.5
		c-0.5-1.3-0.9-2.5-1.1-3.8c-3,6.6-4.9,11.8-5.3,16C403.9,452.5,406.1,448.4,408.5,444.5z M432.5,403.2c0.6-1.4,1.1-3.1,1.1-4.7
		s-0.6-2.4-1.7-2.4s-3.8,1.9-6,5.7c-2.2,3.8-5.5,10.2-8,15.2c-2.5,5.2-4.9,10.4-7.1,15.9c2-2,4.1-4.2,6.1-6.6c2-2.4,3.9-4.9,6-7.4
		c1.9-2.5,4.2-5.8,5.8-8.5C430.3,408.2,431.6,405.7,432.5,403.2z"/>
	
		<linearGradient id="SVGID_00000182527563594332029330000016119751935254816444_" gradientUnits="userSpaceOnUse" x1="473.7498" y1="368.0419" x2="452.8644" y2="338.4928" gradientTransform="matrix(1 0 0 -1 0 804.0068)">
		<stop  offset="0" style="stop-color:#5A9FD4"/>
		<stop  offset="1" style="stop-color:#306998"/>
	</linearGradient>
	<path style="fill:url(#SVGID_00000182527563594332029330000016119751935254816444_);" d="M471.9,436c-3.8,7.5-5.7,13.2-5.7,17.4
		c0,4.2,1.3,4.9,3.9,4.9c3.9,0,9.3-3.5,15.4-10.1c0.3-0.5,0.9-0.8,1.6-0.9c0.3,0,0.5,0.3,0.5,0.8s-0.2,0.9-0.6,1.3
		c-7.5,8-14,11.8-19.3,11.3c-1.6-0.2-3-0.9-3.8-2.2c-1.4-1.6-2.2-3.8-2-6c0-1.3,0.2-2.5,0.5-3.8c-4.9,5.7-8.5,9.1-11.2,10.4
		c-1.3,0.6-2.7,0.9-3.9,1.1c-3,0-4.6-1.7-4.6-5.2s1.9-8.6,5.5-15.2c0.6-1.1,2-1.7,4.1-1.7c2,0,1.7,0.5,1.3,1.4l-1.6,3
		c-0.6,0.9-1.1,1.9-1.6,3c-1.9,3.8-2.8,6.6-2.8,8.6c0,2,0.5,3.1,1.7,3.6c2.8,0,6.1-2.7,9.7-7.7c3.3-4.2,5.8-9.1,7.9-14
		c0.8-0.9,1.9-1.4,3.8-1.4c1.9,0,1.4,0.3,1.4,0.8C472.1,435.5,471.9,435.8,471.9,436z"/>
	
		<linearGradient id="SVGID_00000152966595885206113080000003720375812097658804_" gradientUnits="userSpaceOnUse" x1="511.7201" y1="367.2688" x2="490.9339" y2="337.8599" gradientTransform="matrix(1 0 0 -1 0 804.0068)">
		<stop  offset="0" style="stop-color:#5A9FD4"/>
		<stop  offset="1" style="stop-color:#306998"/>
	</linearGradient>
	<path style="fill:url(#SVGID_00000152966595885206113080000003720375812097658804_);" d="M485.6,460c-0.2,0.6-0.8,0.9-1.3,0.9
		c-0.8,0-1.4-0.3-1.9-0.9c-0.5-0.5-0.6-0.9-0.6-1.6c0.2-0.5,1.1-2.4,1.9-4.2c0.8-1.7,1.7-3.9,2.8-6.4c2.8-6.4,4.1-10.2,4.1-11.6
		s1.3-1.1,3.1-1.9c1.9-0.9,3.1-0.8,3.1,0.8c-1.3,4.2-4.1,10.8-8.5,19.8l7.7-8.3c2.8-2.8,5.7-6.1,8.8-9.4c1.4-1.6,2.5-2.5,3.5-2.5
		s0.8,0.3,0.8,0.9l-0.3,1.6c-2.2,7.4-3.3,12.6-3.3,15.5s1.1,5.2,3.6,5.2c2.5,0,5-1.1,7.9-3.5l2.4-2.2l3.9-3.9
		c0.5-0.5,0.8-0.8,1.1-0.8s0.5,0.2,0.6,0.6c0.2,0.3,0,0.8-0.3,1.1c-6.6,7.2-12.6,11-17.6,11s-6.8-3.6-6.8-10.7
		c-0.2-1.7,0-3.5,0.3-5.2c-0.9,0.8-1.9,1.7-3.1,3l-4.4,4.1l-2.4,2.4c-0.8,0.8-1.4,1.6-2.2,2.5c-0.5,0.6-1.1,1.3-1.6,1.9L485.6,460z"
		/>
</g>
</svg>
